<svg xmlns:xlink="http://www.w3.org/1999/xlink" width="95" height="28" viewBox="0 0 95 28" fill="none" xmlns="http://www.w3.org/2000/svg">
<g clip-path="url(#clip0_2208_56890)" fill="none">
<path d="M12.2129 27.242V13.4776C12.2129 10.8267 10.3975 10.315 9.48973 10.315C8.58199 10.315 6.76651 10.8283 6.76651 13.4776V27.242H0V4.24492H6.60188V6.12587C7.96424 4.71437 9.98513 3.98828 11.7598 3.98828C13.8638 3.98828 15.5554 4.71437 16.7516 5.9553C18.6502 7.92233 18.9795 10.1022 18.9795 12.5386V27.2436H12.2129V27.242Z" fill="#FFFFFF"></path>
<path d="M27.5821 18.009C27.5821 19.8899 28.9853 21.5988 31.5016 21.5988C33.8532 21.5988 34.8848 20.9149 36.081 19.6756L40.1243 23.8647C37.8557 26.2167 35.6264 27.4983 31.5016 27.4983C26.5913 27.4983 20.9395 25.6596 20.9395 15.7415C20.9395 8.21769 25.0658 3.98633 30.8838 3.98633C37.3211 3.98633 40.8689 8.85929 40.8689 14.8871V18.0074H27.5836L27.5821 18.009ZM33.8124 11.554C33.4001 10.5712 32.4924 9.75908 30.8823 9.75908C29.2722 9.75908 28.366 10.5712 27.9522 11.554C27.6637 12.1533 27.5806 12.7933 27.5806 13.3504H34.1825C34.1825 12.7949 34.0994 12.1533 33.8109 11.554H33.8124Z" fill="#FFFFFF"></path>
<path d="M64.626 27.2422L56.9094 15.487L64.336 4.24512H56.2086L52.3828 10.5624L48.557 4.24512H40.4296L47.8562 15.487L40.1396 27.2422H48.2685L52.3828 20.4273L56.4971 27.2422H64.626Z" fill="#FFFFFF"></path>
<path class="arrow" d="M87.9023 27.2418H79.7734L87.49 15.4866L80.0634 4.24316H88.1923L94.9996 15.4866L87.9023 27.2418Z" fill="#FFFFFF"></path>
<path d="M77.5653 4.2447H72.3847V0.5H65.6182V20.4456C65.6182 23.6098 67.5983 27.2434 72.5085 27.2434H77.5653V21.3439H72.3847V9.89226H77.5653V4.2447Z" fill="#FFFFFF"></path>
</g>
<defs>
<clipPath id="clip0_2208_56890">
<rect width="95" height="27" fill="white" transform="translate(0 0.5)"></rect>
</clipPath>
</defs>
</svg>